<svg width="208" height="84" viewBox="0 0 208 84" fill="none" xmlns="http://www.w3.org/2000/svg">
<mask id="mask0_357_140" style="mask-type:luminance" maskUnits="userSpaceOnUse" x="0" y="0" width="90" height="84">
<path d="M0.0933533 0H89.1877V83.3208H0.0933533V0Z" fill="white"/>
</mask>
<g mask="url(#mask0_357_140)">
<path d="M86.276 51.2518C82.8502 50.0466 79.7097 49.2435 76.7121 48.8785C77.9251 44.7158 79.5668 39.7494 84.8486 33.6881L87.1323 31.059L83.7065 31.0955C79.5311 31.1321 75.6057 31.4971 71.8942 32.2642C71.3946 27.9186 70.2882 23.2813 68.6113 18.352L68.1117 16.8909L66.6844 17.3662C61.9736 18.9723 57.7981 20.9446 54.3009 23.3178C53.7299 22.5147 53.1588 21.7476 52.5878 20.9811C49.9832 17.4387 47.556 14.1527 46.0572 11.2311L44.7013 8.63856L43.3454 11.2311C41.8109 14.1527 39.3838 17.4752 36.8143 20.9811C36.2438 21.7476 35.6728 22.5513 35.1017 23.3178C31.5688 20.9446 27.4291 18.9723 22.7183 17.3662L21.291 16.8909L20.7914 18.352C19.1139 23.3178 18.0081 27.9552 17.5085 32.2642C13.8327 31.4971 9.87159 31.0955 5.69615 31.0955L2.27039 31.059L4.55404 33.6881C9.83586 39.7494 11.4776 44.7158 12.6906 48.8785C9.72868 49.2435 6.55244 50.0466 3.12669 51.2518L0.0933533 52.3473L2.80572 54.0637C5.37518 55.707 7.69455 59.5772 9.55005 62.681C10.1211 63.6303 10.6564 64.5071 11.156 65.3101C13.1187 68.2677 15.4387 70.9334 18.0081 72.9416C19.0073 73.7453 20.078 74.4387 21.1481 75.023C20.5418 73.6722 20.0422 71.9192 19.8279 70.4222C17.5442 68.6333 15.4387 66.2594 13.6898 63.5572C13.2259 62.8638 12.7263 61.987 12.1552 61.0377C10.6564 58.5183 8.87239 55.5242 6.73108 53.3331C9.15763 52.6032 11.4418 52.128 13.5826 51.9092C15.9383 59.1757 19.3283 63.9959 23.789 67.0631C24.6101 66.4788 25.5021 65.6751 26.2155 64.9452C21.862 62.2064 18.5792 57.6787 16.3307 50.4853C16.1878 50.0106 15.974 49.2801 15.7596 48.5861C14.5818 44.6061 13.2259 39.9322 8.97899 34.2724C15.3672 34.6374 21.0772 35.9522 26.0732 38.4351C23.0756 45.957 22.8255 53.8809 29.1065 61.7317C30.0343 60.5997 30.7834 59.5772 31.0692 59.0295C25.2163 50.9599 26.858 42.8897 30.8548 35.441C33.1748 31.059 36.3153 26.7866 39.2057 22.8432C41.2041 20.1044 43.1311 17.5118 44.6656 15.0289C46.2001 17.5118 48.0914 20.1044 50.1255 22.8432C53.0516 26.8231 56.1564 31.059 58.4764 35.441C62.4375 42.9263 64.1149 50.9599 58.262 59.0295C58.5478 59.5772 59.2969 60.5997 60.2247 61.7317C66.5057 53.8809 66.2199 45.957 63.258 38.4351C68.2183 35.9522 73.964 34.6374 80.3522 34.2724C76.1053 39.9322 74.7137 44.6061 73.5716 48.5861C73.3572 49.3166 73.1434 50.0106 73.0005 50.4853C70.752 57.6787 67.4692 62.2064 63.1157 64.9452C63.8648 65.6751 64.7211 66.4788 65.5422 67.0631C70.0387 63.9593 73.393 59.1392 75.7486 51.9092C77.8894 52.128 80.1736 52.6032 82.6001 53.3331C80.4946 55.5242 78.7105 58.5183 77.176 61.0377C76.6049 61.987 76.0696 62.8638 75.6415 63.5572C73.8926 66.2229 71.787 68.5967 69.5033 70.4222C69.289 71.9192 68.7894 73.6722 68.1832 75.023C69.2532 74.4387 70.3239 73.7453 71.3231 72.9416C73.8926 70.9334 76.2482 68.2677 78.1752 65.3101C78.7105 64.5071 79.2101 63.6303 79.7812 62.681C81.6367 59.5772 83.956 55.707 86.5255 54.0637L89.2379 52.3473L86.276 51.2518ZM28.2139 33.98C27.9287 34.5277 27.6434 35.0755 27.3934 35.6232C25.2163 34.5643 22.9327 33.6881 20.5061 32.9941C20.8985 29.2335 21.7906 25.1798 23.1822 20.8715C27.0009 22.2588 30.391 23.9021 33.2814 25.8373C31.4616 28.4664 29.6776 31.1686 28.2139 33.98ZM62.0093 35.5867C61.7592 35.0389 61.474 34.4912 61.1882 33.944C59.6894 31.1321 57.9411 28.4298 56.085 25.8373C58.976 23.9021 62.366 22.2223 66.1848 20.8349C67.5764 25.1439 68.4684 29.1969 68.8608 32.9575C66.5057 33.6515 64.1858 34.5277 62.0093 35.5867ZM28.8564 10.6468C28.8564 9.40566 29.8199 8.41981 31.0335 8.41981C32.247 8.41981 33.2105 9.40566 33.2105 10.6468C33.2105 11.8886 32.247 12.8744 31.0335 12.8744C29.8556 12.8744 28.8564 11.8886 28.8564 10.6468ZM56.1564 10.6468C56.1564 9.40566 57.1199 8.41981 58.3335 8.41981C59.547 8.41981 60.5105 9.40566 60.5105 10.6468C60.5105 11.8886 59.547 12.8744 58.3335 12.8744C57.1556 12.8744 56.1564 11.8886 56.1564 10.6468ZM42.5243 2.24882C42.5243 1.00707 43.4878 0.021225 44.7013 0.021225C45.9149 0.021225 46.8784 1.00707 46.8784 2.24882C46.8784 3.48998 45.9149 4.47582 44.7013 4.47582C43.4878 4.47582 42.5243 3.48998 42.5243 2.24882ZM67.3263 69.0714C67.3977 69.2535 67.2548 69.5094 67.0411 69.7647C66.47 70.3491 65.1498 70.6781 64.4001 70.605C62.2946 70.4222 59.547 68.3774 58.3335 67.355C54.0157 63.8131 53.0516 61.7317 52.7307 61.1109C52.4454 60.5631 51.9816 54.4652 51.5171 53.3331C50.2684 55.2317 49.162 57.204 49.162 61.3302C49.162 66.1498 51.6243 68.487 53.1588 72.5401C55.0506 71.9192 57.0842 71.3715 59.1898 71.043C63.5081 70.3491 68.9323 69.8013 64.7926 75.8632C62.9728 78.5283 59.0832 79.5147 56.3351 80.2447C55.8712 80.3544 55.3716 80.464 54.8363 80.6097C57.9053 81.0849 60.8672 81.5961 61.3311 81.8149C62.2946 82.3261 62.7584 83.8962 50.447 82.8373L49.6616 82.7642C49.6616 82.7642 49.4121 82.7276 48.9482 82.691C47.2708 82.5454 45.8792 82.3992 44.7013 82.253C43.5235 82.3992 42.1319 82.5454 40.4544 82.691C39.9906 82.7276 39.7411 82.7642 39.7411 82.7642L38.9556 82.8373C26.6085 83.8962 27.1081 82.3261 28.0716 81.8149C28.4997 81.5596 31.4973 81.0849 34.5307 80.6097C33.9954 80.5006 33.4957 80.3909 33.0319 80.2447C30.2481 79.5147 26.3942 78.5283 24.5744 75.8632C20.4347 69.8379 25.8588 70.3491 30.1772 71.043C32.2822 71.3715 34.3163 71.9192 36.2081 72.5401C37.7784 68.487 40.2049 66.1132 40.2049 61.3302C40.2049 57.204 39.0985 55.2317 37.8493 53.3331C37.3854 54.5018 36.9215 60.5631 36.6363 61.1109C36.3147 61.6952 35.3512 63.7765 31.0335 67.355C29.8199 68.3774 27.0724 70.4587 24.9668 70.605C24.2171 70.6781 22.8969 70.3491 22.3259 69.7647C22.0764 69.5094 21.9335 69.2535 22.0407 69.0714C22.183 68.7789 23.0756 68.9251 25.0383 69.6191C26.7866 69.6191 33.1033 62.4257 33.7101 60.5265C33.9954 59.6504 33.9239 57.0578 34.0668 51.4711C34.2097 45.8838 36.2081 44.7524 39.0628 43.9121C41.9175 43.036 42.9167 40.115 42.9167 40.115C43.0239 39.6403 43.0239 39.2382 43.0239 39.056C42.9882 38.5083 42.4171 37.4493 41.7752 36.6822C41.1327 35.9157 39.3481 32.3738 40.0263 29.0873C40.7045 25.7642 43.9159 25.5088 44.6656 25.5088C45.4153 25.5088 48.591 25.8007 49.3049 29.0873C49.9832 32.4098 48.1985 35.9157 47.5918 36.6822C46.9493 37.4493 46.3788 38.4717 46.343 39.056C46.343 39.2382 46.3788 39.6403 46.4497 40.115C46.4497 40.115 47.4137 43.036 50.3041 43.9121C53.1588 44.7889 55.193 45.8838 55.3001 51.4711C55.443 57.0578 55.3716 59.6504 55.6568 60.5265C56.2279 62.4257 62.5804 69.6191 64.3287 69.6191C66.2914 68.9251 67.184 68.8155 67.3263 69.0714Z" fill="black"/>
</g>
<mask id="mask1_357_140" style="mask-type:luminance" maskUnits="userSpaceOnUse" x="104" y="55" width="90" height="13">
<path d="M193.691 55.5472H104.59V67.3208H193.691V55.5472Z" fill="white"/>
</mask>
<g mask="url(#mask1_357_140)">
<path d="M106.888 59.4391H104.82V58.1914H110.451V59.4391H108.383V64.8046H106.888V59.4391Z" fill="black"/>
<path d="M112.359 58.1914H113.855V64.8046H112.359V58.1914Z" fill="black"/>
<path d="M119.587 64.9179C118.929 64.9179 118.334 64.7716 117.801 64.4792C117.269 64.1867 116.85 63.7811 116.545 63.2622C116.241 62.7421 116.089 62.1537 116.089 61.498C116.089 60.8442 116.241 60.2575 116.545 59.7386C116.85 59.2186 117.269 58.8117 117.801 58.5193C118.334 58.2256 118.933 58.0782 119.597 58.0782C120.157 58.0782 120.664 58.1796 121.116 58.3825C121.567 58.5841 121.948 58.873 122.257 59.2504L121.295 60.1584C120.859 59.6413 120.317 59.3825 119.67 59.3825C119.271 59.3825 118.913 59.4721 118.599 59.6513C118.285 59.8306 118.041 60.0818 117.866 60.4037C117.691 60.7245 117.603 61.0894 117.603 61.498C117.603 61.9084 117.691 62.274 117.866 62.5947C118.041 62.9155 118.285 63.1655 118.599 63.3447C118.913 63.524 119.271 63.6136 119.67 63.6136C120.317 63.6136 120.859 63.353 121.295 62.8306L122.257 63.7363C121.948 64.1219 121.566 64.4149 121.111 64.616C120.656 64.817 120.148 64.9179 119.587 64.9179Z" fill="black"/>
<path d="M126.722 62.2079L125.853 63.1325V64.8046H124.367V58.1914H125.853V61.2811L128.716 58.1914H130.378L127.7 61.1396L130.535 64.8046H128.79L126.722 62.2079Z" fill="black"/>
<path d="M137.308 63.5759V64.8046H132.304V58.1914H137.188V59.4202H133.79V60.8565H136.791V62.0476H133.79V63.5759H137.308Z" fill="black"/>
<path d="M140.943 59.4391H138.876V58.1914H144.507V59.4391H142.439V64.8046H140.943V59.4391Z" fill="black"/>
<path d="M153.265 64.9179C152.594 64.9179 151.99 64.7704 151.451 64.4745C150.912 64.1791 150.491 63.7716 150.185 63.2528C149.881 62.7327 149.729 62.1478 149.729 61.498C149.729 60.8506 149.881 60.2669 150.185 59.748C150.491 59.228 150.912 58.82 151.451 58.524C151.99 58.2268 152.594 58.0782 153.265 58.0782C153.936 58.0782 154.539 58.2268 155.074 58.524C155.61 58.82 156.032 59.228 156.339 59.748C156.647 60.2669 156.8 60.8506 156.8 61.498C156.8 62.1478 156.647 62.7327 156.339 63.2528C156.032 63.7716 155.61 64.1791 155.074 64.4745C154.539 64.7704 153.936 64.9179 153.265 64.9179ZM153.265 63.6136C153.645 63.6136 153.989 63.524 154.297 63.3447C154.606 63.1655 154.848 62.9155 155.023 62.5947C155.198 62.274 155.286 61.9084 155.286 61.498C155.286 61.0894 155.198 60.7245 155.023 60.4037C154.848 60.0818 154.606 59.8306 154.297 59.6513C153.989 59.4721 153.645 59.3825 153.265 59.3825C152.883 59.3825 152.539 59.4721 152.23 59.6513C151.922 59.8306 151.681 60.0818 151.506 60.4037C151.331 60.7245 151.243 61.0894 151.243 61.498C151.243 61.9084 151.331 62.274 151.506 62.5947C151.681 62.9155 151.922 63.1655 152.23 63.3447C152.539 63.524 152.883 63.6136 153.265 63.6136Z" fill="black"/>
<path d="M164.96 58.1914V64.8046H163.731L160.509 60.7905V64.8046H159.031V58.1914H160.269L163.482 62.2079V58.1914H164.96Z" fill="black"/>
<path d="M167.596 58.1914H169.092V63.557H172.333V64.8046H167.596V58.1914Z" fill="black"/>
<path d="M174.278 58.1914H175.774V64.8046H174.278V58.1914Z" fill="black"/>
<path d="M184.341 58.1914V64.8046H183.112L179.89 60.7905V64.8046H178.412V58.1914H179.65L182.863 62.2079V58.1914H184.341Z" fill="black"/>
<path d="M191.981 63.5759V64.8046H186.977V58.1914H191.861V59.4202H188.464V60.8565H191.465V62.0476H188.464V63.5759H191.981Z" fill="black"/>
</g>
<mask id="mask2_357_140" style="mask-type:luminance" maskUnits="userSpaceOnUse" x="95" y="32" width="108" height="24">
<path d="M202.247 32.6038H95.2964V56H202.247V32.6038Z" fill="white"/>
</mask>
<g mask="url(#mask2_357_140)">
<path d="M97.6999 37.8237H98.3291V50.5171H105.933V51.1044H97.6999V37.8237Z" fill="black"/>
<path d="M116.445 47.2152H108.675L106.932 51.1044H106.245L112.255 37.8237H112.865L118.874 51.1044H118.188L116.445 47.2152ZM116.203 46.6633L112.57 38.5619L108.917 46.6633H116.203Z" fill="black"/>
<path d="M131.76 37.8237V51.1044H131.242L122.024 38.9982V51.1044H121.395V37.8237H121.913L131.129 49.9275V37.8237H131.76Z" fill="black"/>
<path d="M135.318 45.7718H140.009V46.3426H135.318V45.7718Z" fill="black"/>
<path d="M144.551 51.1798C143.872 51.1798 143.235 51.0124 142.64 50.6775C142.047 50.3426 141.578 49.8844 141.232 49.3025L141.622 48.885C141.979 49.4416 142.409 49.8656 142.91 50.1562C143.411 50.4475 143.964 50.5926 144.57 50.5926C145.485 50.5926 146.162 50.3237 146.6 49.786C147.039 49.2482 147.26 48.4228 147.26 47.3095V38.411H142.438V37.8237H147.889V47.3284C147.889 49.8962 146.776 51.1798 144.551 51.1798Z" fill="black"/>
<path d="M160.479 47.2152H152.709L150.966 51.1044H150.279L156.289 37.8237H156.899L162.908 51.1044H162.222L160.479 47.2152ZM160.237 46.6633L156.604 38.5619L152.951 46.6633H160.237Z" fill="black"/>
<path d="M165.429 37.8237H166.058V50.5171H173.662V51.1044H165.429V37.8237Z" fill="black"/>
<path d="M184.174 47.2152H176.404L174.661 51.1044H173.974L179.983 37.8237H180.594L186.603 51.1044H185.916L184.174 47.2152ZM183.932 46.6633L180.299 38.5619L176.646 46.6633H183.932Z" fill="black"/>
<path d="M199.489 37.8237V51.1044H198.97L189.753 38.9982V51.1044H189.124V37.8237H189.642L198.857 49.9275V37.8237H199.489Z" fill="black"/>
</g>
</svg>
